PathFileType	4	(X/Y/Z)	 s04c0403.trc
DataRate	CameraRate	NumFrames	NumMarkers	Units	OrigDataRate	OrigDataStartFrame	OrigNumFrames
200	200	4	50	mm	200	1	2000
Frame#	Time	racr			lacr			c7			jug			rlel			rdr			llel			ldr			s2			lic			ric			lasi			rasi			rpsi			lpsi			rgt			lgt			rth1			rth2			rth3			rth4			rlfc			rmfc			rsh1			rsh2			rsh3			rsh4			rlmal			rmmal			rcal			rtoe			rmt5			lth1			lth2			lth4			lth3			llfc			lmfc			lsh1			lsh2			lsh3			lsh4			llmal			lmmal			lcal			ltoe			lmt5			SBIKE			LBIKE			RBIKE			
		X1	Y1	Z1	X2	Y2	Z2	X3	Y3	Z3	X4	Y4	Z4	X5	Y5	Z5	X6	Y6	Z6	X7	Y7	Z7	X8	Y8	Z8	X9	Y9	Z9	X10	Y10	Z10	X11	Y11	Z11	X12	Y12	Z12	X13	Y13	Z13	X14	Y14	Z14	X15	Y15	Z15	X16	Y16	Z16	X17	Y17	Z17	X18	Y18	Z18	X19	Y19	Z19	X20	Y20	Z20	X21	Y21	Z21	X22	Y22	Z22	X23	Y23	Z23	X24	Y24	Z24	X25	Y25	Z25	X26	Y26	Z26	X27	Y27	Z27	X28	Y28	Z28	X29	Y29	Z29	X30	Y30	Z30	X31	Y31	Z31	X32	Y32	Z32	X33	Y33	Z33	X34	Y34	Z34	X35	Y35	Z35	X36	Y36	Z36	X37	Y37	Z37	X38	Y38	Z38	X39	Y39	Z39	X40	Y40	Z40	X41	Y41	Z41	X42	Y42	Z42	X43	Y43	Z43	X44	Y44	Z44	X45	Y45	Z45	X46	Y46	Z46	X47	Y47	Z47	X48	Y48	Z48	X49	Y49	Z49	X50	Y50	Z50	
1	0.0050	479.477223	1484.305483	-100.475723	482.837881	1474.355072	-397.496230	450.895825	1533.471422	-257.389644	476.607777	1387.076908	-251.370375	505.776206	1168.954702	-4.629171	700.285160	944.250404	-57.193403	519.346710	1188.427827	-498.925635	702.466955	942.399488	-453.419121	-43.594998	1188.167979	-277.634585	123.720772	1187.928806	-416.835791	113.468008	1167.824083	-104.591310	153.058521	1140.006825	-373.694014	154.561667	1113.852845	-148.210534	-10.565493	1220.675433	-227.446190	-10.882724	1230.792532	-303.953101	52.646330	1109.416393	-93.314948	80.795902	1130.054389	-467.358485	134.051352	963.599039	-74.307694	191.855003	898.344827	-84.544454	212.956647	815.265871	-89.850824	221.290444	915.150371	-101.658662	263.682737	679.610578	-117.628772	240.720317	665.848208	-229.600763	193.281890	573.394580	-95.618418	169.208105	487.214680	-111.293905	103.645045	429.847317	-119.027965	196.098137	474.923168	-136.872528	33.600997	297.112368	-131.687971	57.528432	300.572012	-216.202631	-41.796213	279.826680	-172.721932	245.901553	196.294018	-151.615319	173.208215	188.837601	-98.904501	136.248455	1076.981992	-471.963591	221.284303	1063.415496	-475.901119	236.211564	1092.677442	-458.745666	290.343721	1007.833334	-487.904095	425.675533	917.658558	-467.548915	461.308977	899.827000	-359.488236	388.560091	807.419298	-485.094362	367.986835	725.669726	-460.527690	307.460675	660.891399	-453.792318	393.202241	717.741380	-431.653684	231.329259	537.163501	-436.788092	232.115667	544.364110	-348.124742	150.708113	514.892735	-391.137478	450.759127	498.612867	-403.462782	379.143239	461.024049	-463.228258	-176.936950	934.054502	-279.464702	-3.108107	85.930596	-484.999020	-15.082381	80.429761	-84.198178	
2	0.0100	479.503296	1484.292764	-100.429430	482.811055	1474.347675	-397.464536	450.883827	1533.497979	-257.353309	476.659673	1387.065290	-251.334083	505.791932	1168.961047	-4.599869	700.295622	944.223574	-57.205582	519.321844	1188.420316	-498.903934	702.478135	942.411875	-453.404719	-43.575735	1188.162340	-277.614442	123.722017	1187.938408	-416.802389	113.515312	1167.777539	-104.585588	153.107439	1140.074431	-373.838200	154.621969	1113.796318	-148.220328	-10.519540	1220.637962	-227.428507	-10.868398	1230.803999	-303.924715	52.681509	1109.373320	-93.312607	80.779985	1130.097222	-467.351959	134.057262	963.579121	-74.292943	191.863792	898.312017	-84.582820	212.953734	815.239238	-89.884036	221.289382	915.101971	-101.667314	263.655721	679.567492	-117.649686	240.688498	665.808878	-229.623053	193.283262	573.348349	-95.630633	169.205815	487.172292	-111.307158	103.631943	429.763030	-119.031229	196.096376	474.859256	-136.894686	33.610860	297.069212	-131.698402	57.553331	300.516356	-216.217957	-41.766284	279.751202	-172.722502	245.944700	196.286610	-151.623875	173.232026	188.838894	-98.895155	136.248759	1077.015024	-471.956936	221.272433	1063.442946	-475.921800	236.210771	1092.681052	-458.744297	290.339068	1007.847609	-487.920812	425.634144	917.670828	-467.599961	461.396478	899.819853	-359.826720	388.521417	807.444207	-485.131228	367.935285	725.670856	-460.554618	307.430283	660.925030	-453.832679	393.173386	717.777202	-431.678130	231.277611	537.219944	-436.804014	232.054239	544.396372	-348.125777	150.666639	514.925652	-391.141957	450.699256	498.658700	-403.476962	379.108611	461.051283	-463.218752	-176.931578	934.049785	-279.485017	-3.113184	85.954946	-484.997404	-15.075617	80.454529	-84.224087	
3	0.0150	479.534602	1484.315431	-100.401471	482.833352	1474.357908	-397.461236	450.883122	1533.531857	-257.337249	476.698466	1387.086985	-251.315989	505.814263	1168.954998	-4.575734	700.292321	944.229605	-57.199323	519.326615	1188.421805	-498.878625	702.491903	942.423930	-453.396754	-43.573913	1188.162111	-277.578335	123.708716	1187.955656	-416.756893	113.541489	1167.742806	-104.567121	153.121603	1140.083966	-373.806108	154.612201	1113.785630	-148.227572	-10.523592	1220.641203	-227.374214	-10.840894	1230.797889	-303.898456	52.705167	1109.355476	-93.305024	80.780797	1130.110242	-467.329301	134.083725	963.549104	-74.288522	191.869701	898.255637	-84.586739	212.935172	815.198459	-89.906702	221.298120	915.087334	-101.686516	263.654706	679.541288	-117.670681	240.659116	665.778727	-229.634606	193.278415	573.317348	-95.645778	169.224685	487.110076	-111.314720	103.641163	429.725409	-119.048799	196.100474	474.828767	-136.902422	33.628384	297.009322	-131.700541	57.556608	300.474252	-216.205525	-41.748665	279.689657	-172.721999	245.984771	196.262193	-151.617676	173.269196	188.814006	-98.892455	136.232583	1077.038217	-471.942953	221.262983	1063.452113	-475.906753	236.193392	1092.718190	-458.732720	290.326465	1007.872608	-487.943138	425.614884	917.676223	-467.623633	461.389090	899.800480	-359.880095	388.510875	807.446737	-485.155515	367.911186	725.689085	-460.578764	307.382718	660.940700	-453.846118	393.141542	717.786768	-431.709677	231.234311	537.253450	-436.815642	232.027277	544.436545	-348.134257	150.626999	514.950385	-391.133769	450.662343	498.688907	-403.470377	379.068230	461.084096	-463.235807	-176.932118	934.059984	-279.471317	-3.124913	85.942474	-484.988967	-15.076983	80.449333	-84.222004	
4	0.0200	479.544454	1484.321828	-100.338478	482.856139	1474.371304	-397.476495	450.881778	1533.535270	-257.344149	476.756265	1387.101900	-251.272751	505.834065	1168.958604	-4.560287	700.302763	944.219815	-57.196704	519.461816	1188.243298	-498.372320	702.486354	942.428189	-453.402772	-43.671064	1188.182448	-277.683342	123.713843	1187.979877	-416.706930	113.693834	1167.641429	-104.549082	153.139359	1140.077187	-373.783503	154.598544	1113.936080	-148.166370	-10.527950	1220.644745	-227.321995	-10.828175	1230.795390	-303.867888	52.708066	1109.332170	-93.278500	80.775558	1130.146485	-467.299126	134.305272	963.870934	-73.692189	192.344721	897.763481	-84.396475	212.918663	815.152076	-89.926659	221.293421	915.067890	-101.681843	263.636314	679.514308	-117.700727	240.611976	665.740361	-229.653481	193.283239	573.287369	-95.658824	168.358597	486.406545	-112.265890	103.667875	429.676296	-119.047557	196.136467	474.767060	-136.903103	33.621974	296.948123	-131.545549	57.529575	300.448103	-216.204063	-41.673342	279.710924	-172.779374	246.023562	196.248400	-151.634260	173.314583	188.779008	-98.904801	136.381373	1077.360540	-472.198044	221.243950	1063.482327	-475.925657	236.168988	1092.941678	-458.970418	290.301247	1007.886018	-487.980546	425.568265	917.753735	-467.630714	461.388741	899.811693	-359.929513	388.475105	807.452672	-485.196267	367.922382	725.688894	-460.731385	307.289373	660.935269	-453.910016	393.180005	717.840588	-431.926694	231.200602	537.167838	-436.648265	231.809281	544.534720	-347.844895	150.592444	514.983430	-391.148643	450.638664	498.740580	-403.530119	379.048278	461.099004	-463.234961	-176.989321	934.058096	-279.757438	-3.112249	85.956883	-484.994208	-15.085046	80.432662	-84.221485	
